<svg width="64" height="64" viewBox="0 0 64 64" fill="none" xmlns="http://www.w3.org/2000/svg">
<rect x="0.792762" y="0.792762" width="62.4145" height="62.4145" rx="31.2072" fill="#FAFAFA"/>
<rect x="0.792762" y="0.792762" width="62.4145" height="62.4145" rx="31.2072" stroke="#EEEEEE" stroke-width="1.58552"/>
<g clip-path="url(#clip0_2026_3206)">
<path d="M27.148 17.0525C23.9507 18.1617 21.1934 20.2669 19.281 23.059C17.3686 25.8511 16.402 29.1829 16.5231 32.5649C16.6443 35.947 17.8467 39.201 19.954 41.8492C22.0612 44.4973 24.9621 46.3999 28.2305 47.2775C30.8803 47.9612 33.6565 47.9913 36.3205 47.365C38.7338 46.8229 40.965 45.6634 42.7955 44C44.7007 42.2159 46.0836 39.9462 46.7955 37.435C47.5691 34.7041 47.7067 31.8323 47.198 29.04H32.318V35.2125H40.9355C40.7633 36.197 40.3942 37.1366 39.8504 37.9751C39.3066 38.8136 38.5992 39.5338 37.7705 40.0925C36.7184 40.7888 35.5321 41.2572 34.288 41.4675C33.0404 41.6995 31.7607 41.6995 30.513 41.4675C29.2484 41.2063 28.0521 40.6844 27.0005 39.935C25.3109 38.739 24.0422 37.0398 23.3755 35.08C22.6977 33.0835 22.6977 30.919 23.3755 28.9225C23.8501 27.523 24.6346 26.2488 25.6705 25.195C26.856 23.9669 28.3569 23.089 30.0084 22.6577C31.66 22.2264 33.3984 22.2583 35.033 22.75C36.31 23.1418 37.4778 23.8267 38.443 24.75C39.4147 23.7833 40.3847 22.8142 41.353 21.8425C41.853 21.32 42.398 20.8225 42.8905 20.2875C41.4169 18.9163 39.6872 17.8493 37.8005 17.1475C34.3648 15.9 30.6055 15.8664 27.148 17.0525Z" fill="white"/>
<path d="M27.1476 17.0522C30.6047 15.8654 34.364 15.898 37.8001 17.1447C39.687 17.8513 41.4159 18.9234 42.8876 20.2997C42.3876 20.8347 41.8601 21.3347 41.3501 21.8547C40.3801 22.8231 39.4109 23.7881 38.4426 24.7497C37.4773 23.8264 36.3096 23.1416 35.0326 22.7497C33.3985 22.2563 31.6601 22.2226 30.0081 22.6521C28.3561 23.0816 26.8543 23.9579 25.6676 25.1847C24.6316 26.2386 23.8471 27.5128 23.3726 28.9122L18.1901 24.8997C20.0451 21.2211 23.2569 18.4073 27.1476 17.0522Z" fill="#E33629"/>
<path d="M16.8152 28.8747C17.0935 27.4941 17.556 26.1571 18.1902 24.8997L23.3727 28.9222C22.6949 30.9187 22.6949 33.0831 23.3727 35.0797C21.646 36.413 19.9185 37.753 18.1902 39.0997C16.603 35.9404 16.119 32.3409 16.8152 28.8747Z" fill="#FFB546"/>
<path d="M32.3175 29.0376H47.1975C47.7062 31.8299 47.5685 34.7017 46.795 37.4326C46.0831 39.9438 44.7002 42.2135 42.795 43.9976C41.1225 42.6926 39.4425 41.3976 37.77 40.0926C38.5992 39.5333 39.3069 38.8123 39.8507 37.9729C40.3946 37.1335 40.7634 36.193 40.935 35.2076H32.3175C32.315 33.1526 32.3175 31.0951 32.3175 29.0376Z" fill="#587DBD"/>
<path d="M18.1875 39.1C19.9158 37.7666 21.6433 36.4266 23.37 35.08C24.038 37.0405 25.3085 38.7397 27 39.935C28.0548 40.6809 29.2537 41.1986 30.52 41.455C31.7676 41.687 33.0473 41.687 34.295 41.455C35.539 41.2447 36.7253 40.7763 37.7775 40.08C39.45 41.385 41.13 42.68 42.8025 43.985C40.9722 45.6493 38.741 46.8097 36.3275 47.3525C33.6635 47.9787 30.8873 47.9487 28.2375 47.265C26.1417 46.7054 24.1841 45.7189 22.4875 44.3675C20.6918 42.9415 19.225 41.1448 18.1875 39.1Z" fill="#319F43"/>
</g>
<defs>
<clipPath id="clip0_2026_3206">
<rect x="16" y="16" width="32" height="32" rx="15" fill="white"/>
</clipPath>
</defs>
</svg>
